<svg id="Page-1" xmlns="http://www.w3.org/2000/svg" width="62.584" height="69.347" viewBox="0 0 62.584 69.347">
  <g id="_028---Schizophrenia" data-name="028---Schizophrenia" transform="translate(0 0)">
    <path id="Shape" d="M58.543,39.1c.694-.94,1.418-1.911,2.069-2.935a17.791,17.791,0,0,0,2.833-9.5,34.63,34.63,0,0,0-1.21-9.816A19.151,19.151,0,0,0,55.325,6.91C48.8,1.8,42.7-.325,35.569.039a77.486,77.486,0,0,0-11.182,1.6c-5.217,1.05-9,2.883-11.582,5.6A21.965,21.965,0,0,0,8.167,14.8a30.663,30.663,0,0,0-1.049,3.777l-.094.4a14.732,14.732,0,0,1-.981,2.615c-.239.535-.477,1.069-.684,1.618a3.9,3.9,0,0,0-.311,1.943,4.411,4.411,0,0,0,1.687,2.574c.568.52.94.884.943,1.217a1.965,1.965,0,0,1-.2.492,44.72,44.72,0,0,1-5.06,8.231c-.83,1.014-1.7,2.2-1.524,3.4a3.584,3.584,0,0,0,1.675,2.156,8.487,8.487,0,0,0,1.206.694c.5.254,1.334.68,1.387.985a1.979,1.979,0,0,1-.126,1.156c-.172.361-.347.674-.5.944-.453.8-1.134,2.007-.065,2.907.25.221.676.556,1.067.854a2.925,2.925,0,0,0-.372,1.675,1.662,1.662,0,0,0,.681,1.124,8.754,8.754,0,0,0,.809.5c.68.388.944.569,1.04.925a3.237,3.237,0,0,1-.125,1.4c-.067.3-.132.607-.172.91A6.737,6.737,0,0,0,7.782,60.4a4.277,4.277,0,0,0,5.037,3.057,94.308,94.308,0,0,0,9.752-2.917c2.6,1.534,4.241,6.179,4.669,7.921a1.156,1.156,0,0,0,1.122.881l29.016-.08a1.156,1.156,0,0,0,1.1-1.495A8.877,8.877,0,0,0,57.3,65.561a10.906,10.906,0,0,1-.74-1.227,22.921,22.921,0,0,1-1.306-3.306,38.421,38.421,0,0,1-1.362-6.837,19.523,19.523,0,0,1,1.512-10.148A25.954,25.954,0,0,1,58.543,39.1ZM51.6,54.479a40.6,40.6,0,0,0,1.444,7.246,25.274,25.274,0,0,0,1.433,3.632,12.819,12.819,0,0,0,.892,1.492c.027.042.054.083.082.125l-26.213.075a18.428,18.428,0,0,0-4.075-7.384l.855-.3c.866-.3,1.519-.533,1.85-.636,4.956-1.556,7.434-3.808,7.367-6.695a1.156,1.156,0,0,0-1.156-1.129h-.03a1.156,1.156,0,0,0-1.128,1.183c.028,1.191-.947,2.927-5.75,4.435-.347.108-1.02.347-1.917.659-.828.29-1.85.647-2.964,1.029h-.007a96.171,96.171,0,0,1-9.933,3,2.059,2.059,0,0,1-2.386-1.55,4.493,4.493,0,0,1-.279-2.04c.031-.24.086-.48.139-.719a5.128,5.128,0,0,0,.109-2.47A3.815,3.815,0,0,0,7.8,52.066c-.082-.046-.165-.094-.247-.142A4.3,4.3,0,0,1,8,51.207a1.156,1.156,0,0,0-.222-1.642c-.277-.206-.939-.694-1.413-1.08.058-.108.125-.231.185-.333.178-.313.381-.675.578-1.09a4.267,4.267,0,0,0,.311-2.584c-.269-1.418-1.618-2.11-2.614-2.614a6.705,6.705,0,0,1-.961-.557,5.918,5.918,0,0,1-.681-.551c0-.173.184-.6,1.074-1.682a46.606,46.606,0,0,0,5.282-8.587,3.339,3.339,0,0,0,.453-1.566A4.032,4.032,0,0,0,8.3,26.031c-.462-.428-.909-.832-.958-1.186a2,2,0,0,1,.185-.809c.19-.5.41-.994.631-1.487a16.709,16.709,0,0,0,1.122-3.035l.095-.407a28.461,28.461,0,0,1,.965-3.5,19.664,19.664,0,0,1,4.148-6.778C16.723,6.474,20.112,4.855,24.843,3.9A75.42,75.42,0,0,1,35.687,2.348C42.228,2.02,47.839,3.983,53.9,8.732a16.669,16.669,0,0,1,6.112,8.751,32.293,32.293,0,0,1,1.126,9.151,15.521,15.521,0,0,1-2.473,8.3c-.6.951-1.3,1.888-1.965,2.793a28.133,28.133,0,0,0-3.4,5.408,21.849,21.849,0,0,0-1.7,11.351Z" transform="translate(-0.869 0)" fill="#eb6584"/>
    <path id="Shape-2" data-name="Shape" d="M55.3,33.067a13.267,13.267,0,0,0,2.114-7.09,29.941,29.941,0,0,0-1.04-8.486,14.438,14.438,0,0,0-5.306-7.559C45.431,5.5,40.4,3.73,34.4,4.036a73.337,73.337,0,0,0-10.506,1.51c-4.189.844-7.263,2.274-9.133,4.253A17.352,17.352,0,0,0,11.1,15.78c-.355.962-.913,3.359-.984,3.662-.26,1.292-.905,5.726,1.718,8.507,1.664,1.763,4.206,2.416,7.553,1.943l1.555-.222a49.155,49.155,0,0,1,8.7-.809c.009,0,.017.006.028.006H29.7a8.03,8.03,0,0,1,5.592,2.34c2.987,2.921,6.3,6.159,11.475,6.159a14.691,14.691,0,0,0,3.907-.563A9.734,9.734,0,0,0,55.3,33.067ZM30.831,26.658v-.694a1.156,1.156,0,1,0-2.312,0v.578c-.731.01-1.5.059-2.312.131V24.808a4.624,4.624,0,0,1,4.624-4.624h6.936a4.624,4.624,0,0,1,4.624,4.624v9.138a14.913,14.913,0,0,1-2.312-1.531V25.964a1.156,1.156,0,1,0-2.312,0v4.415c-.283-.269-.57-.544-.861-.83A9.942,9.942,0,0,0,30.831,26.658Zm0-12.254A3.468,3.468,0,1,1,34.3,17.872,3.468,3.468,0,0,1,30.831,14.4ZM50.057,34.568a10.7,10.7,0,0,1-5.354.247V24.808a6.936,6.936,0,0,0-5.883-6.847,5.78,5.78,0,1,0-9.042,0,6.936,6.936,0,0,0-5.883,6.847v2.124c-1.04.133-2.111.282-3.278.45l-1.55.221c-2.565.365-4.43-.054-5.549-1.239-1.479-1.569-1.554-4.367-1.139-6.432.161-.694.635-2.651.892-3.352a15.09,15.09,0,0,1,3.166-5.193c1.54-1.623,4.2-2.825,7.92-3.571A71.646,71.646,0,0,1,34.518,6.342c5.433-.275,9.884,1.295,15.129,5.41a12.211,12.211,0,0,1,4.508,6.37,27.6,27.6,0,0,1,.951,7.823,10.99,10.99,0,0,1-1.754,5.886A7.532,7.532,0,0,1,50.057,34.568Z" transform="translate(0.533 0.625)" fill="#eb6584"/>
  </g>
</svg>
