<svg id="Page-1" xmlns="http://www.w3.org/2000/svg" width="69.368" height="69.363" viewBox="0 0 69.368 69.363">
  <g id="_023---Imagination" data-name="023---Imagination">
    <path id="Shape" d="M2.7,44.225a8.429,8.429,0,0,0,1.2.694c.5.255,1.338.683,1.4.983a2,2,0,0,1-.135,1.171c-.172.37-.354.688-.509.963-.424.747-1.132,2-.064,2.873.25.231.681.565,1.075.867a2.913,2.913,0,0,0-.377,1.668,1.672,1.672,0,0,0,.686,1.138c.257.18.531.338.8.491.683.39.95.57,1.04.933A3.179,3.179,0,0,1,7.7,57.392c-.067.31-.134.62-.172.925a6.886,6.886,0,0,0,.379,3.114A4.329,4.329,0,0,0,12,64.582a4.657,4.657,0,0,0,.948-.1,87.792,87.792,0,0,0,9.746-2.917c2.6,1.528,4.25,6.175,4.678,7.92a1.156,1.156,0,0,0,1.122.877l29.016-.081a1.156,1.156,0,0,0,1.1-1.5,8.962,8.962,0,0,0-1.172-2.2,10.866,10.866,0,0,1-.748-1.247,22.183,22.183,0,0,1-1.305-3.291A38.8,38.8,0,0,1,54.016,55.2a19.559,19.559,0,0,1,1.518-10.151,25.841,25.841,0,0,1,3.14-4.963c.694-.936,1.414-1.906,2.058-2.921a18.636,18.636,0,0,0,1.387-2.644h2.463a5.78,5.78,0,0,0,4.076-9.882,6.018,6.018,0,0,0-.71-.59,5.7,5.7,0,0,0-1.215-4.715A20.724,20.724,0,0,0,46.085,1a21.079,21.079,0,0,0-4.162.422A27.413,27.413,0,0,0,35.7,1.036a77.188,77.188,0,0,0-11.181,1.6c-5.213,1.04-9,2.868-11.586,5.6A22.147,22.147,0,0,0,8.3,15.805,31.134,31.134,0,0,0,7.272,19.5l-.116.488a14.847,14.847,0,0,1-.992,2.636c-.231.526-.469,1.052-.679,1.6a3.9,3.9,0,0,0-.3,1.931,4.414,4.414,0,0,0,1.685,2.585c.564.518.935.883.94,1.2a1.933,1.933,0,0,1-.2.5,44.652,44.652,0,0,1-5.061,8.225c-.836,1.017-1.712,2.206-1.528,3.4A3.542,3.542,0,0,0,2.7,44.225ZM68.05,28.745a3.468,3.468,0,0,1-3.468,3.468H53.021a3.468,3.468,0,0,1-1.691-6.493,1.156,1.156,0,0,0,.563-1.272,1.423,1.423,0,0,1-.028-.327,2.312,2.312,0,1,1,4.624,0,1.156,1.156,0,0,0,1.156,1.156h.15a1.156,1.156,0,0,0,1.113-1.469,3.045,3.045,0,0,1-.108-.843,3.468,3.468,0,1,1,6.936,0,3.292,3.292,0,0,1-.22,1.206,1.156,1.156,0,0,0,.578,1.468,3.539,3.539,0,0,1,.933.646A3.489,3.489,0,0,1,68.05,28.745ZM26.073,25.639a1.156,1.156,0,0,0,.578-1.468,3.292,3.292,0,0,1-.218-1.206,3.468,3.468,0,1,1,6.936,0,3.045,3.045,0,0,1-.108.843,1.156,1.156,0,0,0,1.113,1.469h.15a1.156,1.156,0,0,0,1.156-1.156,2.312,2.312,0,1,1,4.624,0,1.44,1.44,0,0,1-.027.324,1.156,1.156,0,0,0,.562,1.272,3.468,3.468,0,0,1-1.691,6.5H27.589A3.468,3.468,0,0,1,25.121,26.3,3.606,3.606,0,0,1,26.073,25.639Zm31.374-5.858a11.536,11.536,0,0,0-22.723,0,5.811,5.811,0,0,0-1.958-1.823,13.86,13.86,0,0,1,26.637,0A5.816,5.816,0,0,0,57.448,19.781Zm-17.982-.022a4.576,4.576,0,0,0-1.473-.262,4.639,4.639,0,0,0-.866.087,9.226,9.226,0,0,1,17.918,0,4.293,4.293,0,0,0-2.342.175,6.927,6.927,0,0,0-13.239,0ZM64.058,17.5a5.7,5.7,0,0,0-1.788-.312,5.808,5.808,0,0,0-.669.049,16.172,16.172,0,0,0-31.03,0,5.808,5.808,0,0,0-.669-.049,5.7,5.7,0,0,0-1.788.312,18.479,18.479,0,0,1,35.945,0ZM4.381,40.074a46.65,46.65,0,0,0,5.29-8.592,3.426,3.426,0,0,0,.446-1.563,4.036,4.036,0,0,0-1.689-2.89c-.462-.429-.909-.833-.96-1.208a2.166,2.166,0,0,1,.179-.793c.188-.495.407-.98.624-1.466A16.878,16.878,0,0,0,9.4,20.512l.116-.492a28.9,28.9,0,0,1,.947-3.413,19.856,19.856,0,0,1,4.148-6.775c2.211-2.34,5.692-4,10.363-4.924a75.026,75.026,0,0,1,10.84-1.562c.231-.012.452-.009.679-.015A20.693,20.693,0,0,0,25.438,19.338a5.7,5.7,0,0,0-1.215,4.717,6.217,6.217,0,0,0-.728.607,5.78,5.78,0,0,0,4.095,9.863h11.56a5.78,5.78,0,0,0,3.468-10.4,4.581,4.581,0,0,0-1.087-2.942,4.594,4.594,0,0,1,9.109,0,4.581,4.581,0,0,0-1.087,2.942,5.78,5.78,0,0,0,3.468,10.4h6.565c-.244.48-.511.949-.8,1.4-.6.949-1.294,1.883-1.965,2.787a27.936,27.936,0,0,0-3.4,5.416,21.881,21.881,0,0,0-1.695,11.352,41.083,41.083,0,0,0,1.455,7.248,24.218,24.218,0,0,0,1.435,3.62,12.624,12.624,0,0,0,.9,1.5l.077.116-26.221.08A18.431,18.431,0,0,0,25.3,60.667l1.04-.365c.773-.269,1.356-.473,1.654-.569,4.954-1.566,7.43-3.822,7.363-6.7a1.156,1.156,0,1,0-2.312.054c.028,1.19-.947,2.925-5.754,4.445-.313.1-.916.311-1.714.59-.86.3-1.953.683-3.159,1.092h-.007a90.107,90.107,0,0,1-9.942,3.006,2.052,2.052,0,0,1-2.37-1.541,4.624,4.624,0,0,1-.272-2.063c.031-.242.086-.483.139-.725a5.056,5.056,0,0,0,.1-2.459,3.83,3.83,0,0,0-2.139-2.364c-.081-.045-.161-.091-.24-.138a4.343,4.343,0,0,1,.446-.714,1.156,1.156,0,0,0-.222-1.646c-.277-.2-.932-.694-1.412-1.08.055-.1.116-.212.175-.311.181-.319.39-.694.591-1.117a4.325,4.325,0,0,0,.309-2.587c-.277-1.41-1.629-2.1-2.615-2.606A6.684,6.684,0,0,1,4,42.311a4.925,4.925,0,0,1-.694-.562C3.312,41.577,3.5,41.15,4.381,40.074Z" transform="translate(-0.998 -0.999)" fill="#0096cb"/>
    <path id="Shape-2" data-name="Shape" d="M11.086,21.513a1.156,1.156,0,0,0,1.387-.864l.116-.5a25.651,25.651,0,0,1,.773-2.857,15.259,15.259,0,0,1,3.172-5.2,12.1,12.1,0,0,1,5.329-2.926,1.156,1.156,0,0,0-.675-2.211,14.324,14.324,0,0,0-6.335,3.55A17.564,17.564,0,0,0,11.2,16.495a27.5,27.5,0,0,0-.855,3.131l-.116.5A1.156,1.156,0,0,0,11.086,21.513Z" transform="translate(0.437 -0.078)" fill="#0096cb"/>
    <ellipse id="Oval" cx="1.37" cy="1.37" rx="1.37" ry="1.37" transform="translate(9.088 22.786)" fill="#0096cb"/>
  </g>
</svg>
