<svg id="Page-1" xmlns="http://www.w3.org/2000/svg" width="69.365" height="69.362" viewBox="0 0 69.365 69.362">
  <g id="_021---Extrovert" data-name="021---Extrovert" transform="translate(0 0)">
    <path id="Shape" d="M2.7,43.221a8.429,8.429,0,0,0,1.2.694c.5.255,1.338.683,1.4.983a2,2,0,0,1-.135,1.171c-.172.37-.354.688-.509.963-.424.747-1.132,2-.064,2.873.25.231.681.565,1.075.867a2.913,2.913,0,0,0-.377,1.668,1.672,1.672,0,0,0,.686,1.138c.257.18.531.338.8.491.683.39.95.57,1.04.933A3.179,3.179,0,0,1,7.7,56.388c-.067.31-.134.62-.172.925a6.886,6.886,0,0,0,.379,3.114A4.329,4.329,0,0,0,12,63.577a4.657,4.657,0,0,0,.948-.1A87.788,87.788,0,0,0,22.69,60.56c2.6,1.528,4.25,6.175,4.678,7.92a1.156,1.156,0,0,0,1.122.877l29.016-.081a1.156,1.156,0,0,0,1.1-1.5,8.962,8.962,0,0,0-1.172-2.2,10.867,10.867,0,0,1-.748-1.247,22.163,22.163,0,0,1-1.3-3.288l-.16-.511A34.326,34.326,0,0,1,53.4,52.017a1.156,1.156,0,0,0-2.312,0,35.541,35.541,0,0,0,1.931,9.215l.155.492a24.218,24.218,0,0,0,1.435,3.62,12.626,12.626,0,0,0,.9,1.5l.077.116-26.22.083A18.431,18.431,0,0,0,25.3,59.663l1.04-.365c.773-.269,1.356-.473,1.654-.569,4.954-1.566,7.43-3.822,7.363-6.7a1.156,1.156,0,1,0-2.312.054c.028,1.19-.947,2.925-5.754,4.445-.313.1-.916.311-1.714.59-.86.3-1.953.683-3.159,1.092h-.007a90.11,90.11,0,0,1-9.942,3.006,2.053,2.053,0,0,1-2.37-1.541,4.624,4.624,0,0,1-.272-2.064c.031-.242.086-.483.139-.725a5.056,5.056,0,0,0,.1-2.459,3.83,3.83,0,0,0-2.139-2.364c-.081-.045-.161-.091-.24-.138a4.343,4.343,0,0,1,.446-.714,1.156,1.156,0,0,0-.222-1.646c-.277-.2-.932-.694-1.412-1.08.055-.1.116-.212.175-.311.181-.319.39-.694.591-1.117a4.325,4.325,0,0,0,.309-2.587c-.277-1.41-1.629-2.1-2.615-2.606A6.684,6.684,0,0,1,4,41.306a4.925,4.925,0,0,1-.694-.562c0-.175.187-.6,1.068-1.672a46.65,46.65,0,0,0,5.295-8.6,3.426,3.426,0,0,0,.446-1.563,4.036,4.036,0,0,0-1.689-2.89c-.462-.429-.909-.833-.96-1.208a2.166,2.166,0,0,1,.179-.793c.188-.495.407-.98.624-1.466A16.878,16.878,0,0,0,9.4,19.507l.116-.492a28.9,28.9,0,0,1,.947-3.413,19.856,19.856,0,0,1,4.148-6.775c2.211-2.34,5.692-4,10.363-4.924A75.141,75.141,0,0,1,35.823,2.34,1.158,1.158,0,0,0,35.7.028a77.188,77.188,0,0,0-11.181,1.6c-5.213,1.04-9,2.868-11.586,5.6A22.147,22.147,0,0,0,8.3,14.8a31.134,31.134,0,0,0-1.024,3.695l-.116.488a14.847,14.847,0,0,1-.992,2.636c-.231.526-.469,1.052-.679,1.6a3.9,3.9,0,0,0-.3,1.931,4.414,4.414,0,0,0,1.685,2.585c.564.518.935.883.94,1.2a1.933,1.933,0,0,1-.2.5,44.652,44.652,0,0,1-5.061,8.225c-.836,1.017-1.712,2.206-1.528,3.4A3.542,3.542,0,0,0,2.7,43.221Z" transform="translate(-0.998 0.005)" fill="#9373b1"/>
    <path id="Shape-2" data-name="Shape" d="M50.161,9.248a1.156,1.156,0,0,0-.215,1.618A15.375,15.375,0,0,1,51,12.467,1.156,1.156,0,1,0,53,11.3a17.606,17.606,0,0,0-1.216-1.835A1.156,1.156,0,0,0,50.161,9.248Z" transform="translate(6.602 1.406)" fill="#9373b1"/>
    <path id="Shape-3" data-name="Shape" d="M51.4,32.152a1.165,1.165,0,0,0-1.618.254c-.64.868-1.3,1.768-1.914,2.687a1.156,1.156,0,0,0,1.914,1.282c.587-.881,1.22-1.734,1.85-2.6l.013-.017a1.148,1.148,0,0,0-.244-1.608Z" transform="translate(6.292 4.983)" fill="#9373b1"/>
    <path id="Shape-4" data-name="Shape" d="M12.476,19.649l.116-.5a25.651,25.651,0,0,1,.773-2.857,15.26,15.26,0,0,1,3.172-5.2,12.1,12.1,0,0,1,5.329-2.926,1.156,1.156,0,0,0-.675-2.211A14.324,14.324,0,0,0,14.856,9.5,17.564,17.564,0,0,0,11.2,15.495a27.5,27.5,0,0,0-.855,3.131l-.116.5a1.156,1.156,0,1,0,2.251.525Z" transform="translate(0.436 0.921)" fill="#9373b1"/>
    <ellipse id="Oval" cx="1.37" cy="1.37" rx="1.37" ry="1.37" transform="translate(8.972 22.786)" fill="#9373b1"/>
    <path id="Shape-5" data-name="Shape" d="M32,30.387v.5a1.156,1.156,0,0,0,1.156,1.156h11.56a1.156,1.156,0,0,0,1.156-1.156v-.5a6.612,6.612,0,0,0-3.5-5.826,4.459,4.459,0,0,0,1.187-3.008,4.624,4.624,0,1,0-9.248,0A4.459,4.459,0,0,0,35.5,24.559,6.612,6.612,0,0,0,32,30.387Zm6.936-11.064a2.231,2.231,0,1,1-2.312,2.23A2.274,2.274,0,0,1,38.936,19.323Zm-.331,6.771h.661a4.3,4.3,0,0,1,4.243,3.633H34.363A4.3,4.3,0,0,1,38.606,26.094Z" transform="translate(3.839 2.642)" fill="#9373b1"/>
    <path id="Shape-6" data-name="Shape" d="M48.1,7.3,40.005.282a1.156,1.156,0,0,0-1.514,0L30.4,7.3a1.156,1.156,0,0,0,.757,2.03h3.468v5.7a2.312,2.312,0,0,0,2.312,2.312H41.56a2.312,2.312,0,0,0,2.312-2.312v-5.7H47.34A1.156,1.156,0,0,0,48.1,7.3Zm-5.381-.282A1.156,1.156,0,0,0,41.56,8.17v6.859H36.936V8.17A1.156,1.156,0,0,0,35.78,7.014H34.255l4.993-4.328,4.993,4.328Z" transform="translate(3.527 0)" fill="#9373b1"/>
    <path id="Shape-7" data-name="Shape" d="M30.073,40.766a1.156,1.156,0,0,0,.326,1.279l8.092,7.014a1.156,1.156,0,0,0,1.514,0L48.1,42.045a1.156,1.156,0,0,0-.757-2.03H43.872v-5.7A2.312,2.312,0,0,0,41.56,32H36.936a2.312,2.312,0,0,0-2.312,2.312v5.7H31.156A1.156,1.156,0,0,0,30.073,40.766Zm5.707,1.561a1.156,1.156,0,0,0,1.156-1.156V34.312H41.56v6.859a1.156,1.156,0,0,0,1.156,1.156h1.525l-4.993,4.328-4.993-4.328Z" transform="translate(3.527 4.993)" fill="#9373b1"/>
    <path id="Shape-8" data-name="Shape" d="M63.058,23.491,56.045,15.4a1.156,1.156,0,0,0-2.03.757v3.468h-5.7A2.312,2.312,0,0,0,46,21.936V26.56a2.312,2.312,0,0,0,2.312,2.312h5.7V32.34a1.156,1.156,0,0,0,.751,1.083,1.178,1.178,0,0,0,.4.073,1.156,1.156,0,0,0,.874-.4l7.014-8.092A1.156,1.156,0,0,0,63.058,23.491Zm-6.732,5.75V27.716a1.156,1.156,0,0,0-1.156-1.156H48.312V21.936h6.859a1.156,1.156,0,0,0,1.156-1.156V19.255l4.328,4.993Z" transform="translate(6.024 2.341)" fill="#9373b1"/>
    <path id="Shape-9" data-name="Shape" d="M22.3,33.1a1.156,1.156,0,0,0,.874.4,1.178,1.178,0,0,0,.4-.073,1.156,1.156,0,0,0,.751-1.083V28.872h5.7A2.312,2.312,0,0,0,32.34,26.56V21.936a2.312,2.312,0,0,0-2.312-2.312h-5.7V16.156A1.156,1.156,0,0,0,22.3,15.4l-7.014,8.092a1.156,1.156,0,0,0,0,1.514Zm-.282-13.842V20.78a1.156,1.156,0,0,0,1.156,1.156h6.859V26.56H23.17a1.156,1.156,0,0,0-1.156,1.156v1.525l-4.328-4.993Z" transform="translate(1.187 2.341)" fill="#9373b1"/>
  </g>
</svg>
