<svg id="Page-1" xmlns="http://www.w3.org/2000/svg" width="68.209" height="69.367" viewBox="0 0 68.209 69.367">
  <g id="_003---Dreaming" data-name="003---Dreaming" transform="translate(0 0)">
    <path id="Shape" d="M2.7,44.226a8.429,8.429,0,0,0,1.2.694c.5.255,1.338.683,1.4.983a2,2,0,0,1-.135,1.171c-.172.37-.354.688-.509.963-.424.747-1.132,2-.064,2.873.25.231.681.565,1.075.867a2.913,2.913,0,0,0-.377,1.668,1.672,1.672,0,0,0,.686,1.138c.257.18.531.338.8.491.683.39.95.57,1.04.933A3.179,3.179,0,0,1,7.7,57.393c-.067.31-.134.62-.172.925a6.886,6.886,0,0,0,.379,3.114A4.329,4.329,0,0,0,12,64.582a4.656,4.656,0,0,0,.948-.1,87.792,87.792,0,0,0,9.746-2.917c2.6,1.528,4.25,6.175,4.678,7.92a1.156,1.156,0,0,0,1.122.877l29.016-.081a1.156,1.156,0,0,0,1.1-1.5,8.961,8.961,0,0,0-1.172-2.2,10.867,10.867,0,0,1-.748-1.247,22.183,22.183,0,0,1-1.305-3.291A38.8,38.8,0,0,1,54.016,55.2a19.559,19.559,0,0,1,1.518-10.151,25.841,25.841,0,0,1,3.14-4.963c.694-.936,1.414-1.906,2.062-2.927a18.66,18.66,0,0,0,1.534-3.024,9.841,9.841,0,0,0,4.066-2.3,8.981,8.981,0,0,0,2.87-6.562,9.274,9.274,0,0,0-5.76-8.439,11.085,11.085,0,0,0,.859-4.277A11.885,11.885,0,0,0,52.143,1a12.65,12.65,0,0,0-6.058,1.541A26.171,26.171,0,0,0,35.7,1.039a77.188,77.188,0,0,0-11.181,1.6c-5.213,1.04-9,2.868-11.586,5.6A22.147,22.147,0,0,0,8.3,15.808,31.134,31.134,0,0,0,7.272,19.5l-.116.488a14.847,14.847,0,0,1-.992,2.636c-.231.526-.469,1.052-.679,1.6a3.9,3.9,0,0,0-.3,1.931,4.414,4.414,0,0,0,1.685,2.585c.564.518.935.883.94,1.2a1.933,1.933,0,0,1-.2.5,44.652,44.652,0,0,1-5.061,8.225c-.837,1.018-1.713,2.207-1.529,3.4A3.542,3.542,0,0,0,2.7,44.226ZM61.992,12.561a8.751,8.751,0,0,1-1.164,4.359,1.156,1.156,0,0,0,.7,1.694,7.038,7.038,0,0,1,5.363,6.663,6.693,6.693,0,0,1-2.144,4.881,7.641,7.641,0,0,1-5.266,2.055H53.038c-.077-.087-.138-.184-.22-.267a6.273,6.273,0,0,0-1.387-1.04,5.523,5.523,0,0,0,.231-1h8.3a1.156,1.156,0,1,0,0-2.312H51.5a5.492,5.492,0,0,0-7.052-3.736,7.706,7.706,0,0,0-13.544,6.992c-.058.03-.109.069-.164.1a6.821,6.821,0,0,1-3.155-5.674A6.693,6.693,0,0,1,29.733,20.4a7.66,7.66,0,0,1,3.121-1.765,1.156,1.156,0,0,0,.625-1.774,5.441,5.441,0,0,1-.99-3.14,6,6,0,0,1,6.185-5.78,6.382,6.382,0,0,1,3.147.809A1.156,1.156,0,0,0,43.4,8.294a9.9,9.9,0,0,1,8.744-4.981A9.574,9.574,0,0,1,61.992,12.561ZM31.487,33.22l.013-.01a3.864,3.864,0,0,1,1.258-.63,1.156,1.156,0,0,0,.7-1.665,5.392,5.392,0,1,1,9.526-5.055,1.156,1.156,0,0,0,1.618.462,3.121,3.121,0,0,1,1.618-.44,3.215,3.215,0,0,1,3.2,3.21,3.132,3.132,0,0,1-.525,1.751,1.156,1.156,0,0,0,.624,1.749,4,4,0,0,1,1.659.994A3.94,3.94,0,0,1,48.4,40.306H33.84a3.931,3.931,0,0,1-2.353-7.085ZM4.381,40.074a46.65,46.65,0,0,0,5.29-8.592,3.426,3.426,0,0,0,.446-1.563,4.036,4.036,0,0,0-1.689-2.89c-.462-.429-.909-.833-.96-1.208a2.166,2.166,0,0,1,.179-.793c.188-.495.407-.98.624-1.466A16.878,16.878,0,0,0,9.4,20.512l.116-.492a28.9,28.9,0,0,1,.947-3.413,19.856,19.856,0,0,1,4.148-6.775c2.211-2.34,5.692-4,10.363-4.924A75.153,75.153,0,0,1,35.821,3.345a24.115,24.115,0,0,1,7.913.866,11.648,11.648,0,0,0-1.79,2.042,8.817,8.817,0,0,0-3.269-.628,8.311,8.311,0,0,0-8.5,8.092,7.735,7.735,0,0,0,.683,3.189,9.907,9.907,0,0,0-2.715,1.809,8.981,8.981,0,0,0-2.869,6.562A9.1,9.1,0,0,0,28.94,32.5a6.243,6.243,0,0,0,4.9,10.119H48.4a6.174,6.174,0,0,0,5.945-8.092h5.233c-.239.472-.5.942-.792,1.408-.6.949-1.294,1.883-1.965,2.787a27.936,27.936,0,0,0-3.4,5.416,21.881,21.881,0,0,0-1.695,11.352,41.083,41.083,0,0,0,1.455,7.244,24.218,24.218,0,0,0,1.435,3.62,12.626,12.626,0,0,0,.9,1.5l.077.116-26.221.08A18.431,18.431,0,0,0,25.3,60.668l1.04-.365c.773-.269,1.356-.473,1.654-.569,4.954-1.566,7.43-3.822,7.363-6.7A1.128,1.128,0,0,0,34.178,51.9a1.156,1.156,0,0,0-1.128,1.183c.028,1.19-.947,2.925-5.754,4.445-.313.1-.916.311-1.714.59-.86.3-1.953.683-3.159,1.092h-.007a90.106,90.106,0,0,1-9.942,3.006,2.051,2.051,0,0,1-2.379-1.541,4.624,4.624,0,0,1-.272-2.064c.031-.242.086-.483.139-.725a5.056,5.056,0,0,0,.1-2.459,3.83,3.83,0,0,0-2.139-2.364c-.081-.045-.161-.091-.24-.138a4.343,4.343,0,0,1,.446-.714,1.156,1.156,0,0,0-.222-1.646c-.277-.2-.932-.694-1.412-1.08.055-.1.116-.212.175-.311.181-.319.39-.694.591-1.117a4.325,4.325,0,0,0,.309-2.587c-.277-1.41-1.629-2.1-2.615-2.606A6.684,6.684,0,0,1,4,42.311a4.924,4.924,0,0,1-.694-.562C3.313,41.577,3.5,41.151,4.381,40.074Z" transform="translate(-0.997 -0.995)" fill="#46b48a"/>
    <path id="Shape-2" data-name="Shape" d="M39.9,10.359A1.156,1.156,0,0,0,41.473,9.9a5.28,5.28,0,0,1,4.693-2.592,4.958,4.958,0,0,1,5.225,4.624,4.132,4.132,0,0,1-.549,2.057,1.158,1.158,0,1,0,2.006,1.156,6.454,6.454,0,0,0,.855-3.213A7.263,7.263,0,0,0,46.166,5a7.589,7.589,0,0,0-6.719,3.788A1.156,1.156,0,0,0,39.9,10.359Z" transform="translate(4.98 -0.371)" fill="#46b48a"/>
    <path id="Shape-3" data-name="Shape" d="M36.133,9.521A4.085,4.085,0,0,0,34.113,9a3.691,3.691,0,0,0-3.873,3.468,3.142,3.142,0,0,0,.578,1.81,1.156,1.156,0,1,0,1.892-1.327.809.809,0,0,1-.158-.483c0-.627.714-1.156,1.561-1.156a1.783,1.783,0,0,1,.891.231,1.156,1.156,0,1,0,1.129-2.017Z" transform="translate(3.566 0.253)" fill="#46b48a"/>
    <path id="Shape-4" data-name="Shape" d="M31.156,33.312h11.56a1.156,1.156,0,1,0,0-2.312H31.156a1.156,1.156,0,1,0,0,2.312Z" transform="translate(3.529 3.687)" fill="#46b48a"/>
    <path id="Shape-5" data-name="Shape" d="M11.086,21.513a1.156,1.156,0,0,0,1.387-.864l.116-.5a25.651,25.651,0,0,1,.773-2.857,15.259,15.259,0,0,1,3.172-5.2,12.1,12.1,0,0,1,5.329-2.926,1.156,1.156,0,0,0-.675-2.211,14.324,14.324,0,0,0-6.335,3.55A17.564,17.564,0,0,0,11.2,16.495a27.5,27.5,0,0,0-.855,3.131l-.116.5A1.156,1.156,0,0,0,11.086,21.513Z" transform="translate(0.438 -0.073)" fill="#46b48a"/>
    <ellipse id="Oval" cx="1.37" cy="1.37" rx="1.37" ry="1.37" transform="translate(9.191 22.786)" fill="#46b48a"/>
  </g>
</svg>
