<svg id="Page-1" xmlns="http://www.w3.org/2000/svg" width="69.364" height="69.365" viewBox="0 0 69.364 69.365">
  <g id="_010---Idea" data-name="010---Idea" transform="translate(0 0)">
    <path id="Shape" d="M2.7,44.225a8.243,8.243,0,0,0,1.2.694c.5.255,1.336.683,1.4.983a2.008,2.008,0,0,1-.136,1.171c-.172.37-.353.688-.509.962-.423.748-1.132,2-.064,2.874.25.231.681.565,1.074.867a2.912,2.912,0,0,0-.376,1.668,1.665,1.665,0,0,0,.686,1.136c.257.181.531.339.8.492.683.39.95.571,1.04.933A3.185,3.185,0,0,1,7.7,57.393c-.068.309-.134.618-.173.925a6.88,6.88,0,0,0,.38,3.114A4.33,4.33,0,0,0,12,64.582a4.647,4.647,0,0,0,.948-.1,87.716,87.716,0,0,0,9.746-2.917c2.6,1.528,4.25,6.175,4.678,7.92a1.156,1.156,0,0,0,1.122.877l29.016-.081a1.156,1.156,0,0,0,1.1-1.5,8.923,8.923,0,0,0-1.171-2.2,10.8,10.8,0,0,1-.748-1.251,21.84,21.84,0,0,1-1.305-3.288,39.006,39.006,0,0,1-1.357-6.763,1.156,1.156,0,1,0-2.294.282,41.23,41.23,0,0,0,1.442,7.167,24.226,24.226,0,0,0,1.435,3.618,12.823,12.823,0,0,0,.9,1.511l.077.116-26.217.075A18.417,18.417,0,0,0,25.3,60.668l1.04-.364c.775-.271,1.358-.474,1.658-.57,4.952-1.566,7.429-3.822,7.362-6.7A1.126,1.126,0,0,0,34.178,51.9a1.156,1.156,0,0,0-1.128,1.183c.028,1.19-.947,2.925-5.752,4.445-.313.1-.917.311-1.718.591-.859.3-1.951.682-3.156,1.091h-.008a89.954,89.954,0,0,1-9.942,3.006,2.046,2.046,0,0,1-2.379-1.541,4.6,4.6,0,0,1-.272-2.062c.03-.243.086-.483.139-.725a5.065,5.065,0,0,0,.1-2.461,3.841,3.841,0,0,0-2.14-2.363l-.24-.138a4.334,4.334,0,0,1,.445-.714,1.156,1.156,0,0,0-.221-1.646c-.277-.2-.932-.694-1.41-1.08.055-.1.116-.212.173-.312.181-.318.388-.688.591-1.116a4.334,4.334,0,0,0,.309-2.587c-.277-1.41-1.628-2.1-2.614-2.606A6.568,6.568,0,0,1,4,42.313a4.908,4.908,0,0,1-.694-.564c0-.175.187-.6,1.068-1.672A46.5,46.5,0,0,0,9.67,31.484a3.415,3.415,0,0,0,.447-1.564,4.046,4.046,0,0,0-1.689-2.89c-.468-.429-.909-.833-.959-1.207a2.1,2.1,0,0,1,.18-.794c.188-.5.406-.981.624-1.468A16.888,16.888,0,0,0,9.4,20.512l.116-.492a28.9,28.9,0,0,1,.946-3.413,19.825,19.825,0,0,1,4.148-6.775c2.211-2.34,5.692-4,10.363-4.924A75.141,75.141,0,0,1,35.822,3.345a24.656,24.656,0,0,1,5.441.309,1.156,1.156,0,0,0,.4-2.277,26.849,26.849,0,0,0-5.957-.34,77.158,77.158,0,0,0-11.182,1.6c-5.213,1.04-9,2.868-11.587,5.6A22.149,22.149,0,0,0,8.3,15.806,31.356,31.356,0,0,0,7.272,19.5l-.116.488a15.085,15.085,0,0,1-.988,2.633c-.231.527-.472,1.054-.679,1.6a3.872,3.872,0,0,0-.306,1.934,4.414,4.414,0,0,0,1.685,2.581c.565.519.936.884.941,1.2a1.919,1.919,0,0,1-.2.5,44.6,44.6,0,0,1-5.063,8.227c-.836,1.018-1.711,2.206-1.525,3.393A3.529,3.529,0,0,0,2.7,44.225Z" transform="translate(-0.998 -0.997)" fill="#f2d847"/>
    <path id="Shape-2" data-name="Shape" d="M12.475,20.649l.116-.514a25.752,25.752,0,0,1,.771-2.842,15.232,15.232,0,0,1,3.172-5.2,12.1,12.1,0,0,1,5.328-2.926,1.156,1.156,0,1,0-.673-2.211,14.316,14.316,0,0,0-6.336,3.55A17.55,17.55,0,0,0,11.2,16.5a27.553,27.553,0,0,0-.857,3.132l-.116.5a1.156,1.156,0,0,0,.864,1.387,1.136,1.136,0,0,0,.262.03A1.156,1.156,0,0,0,12.475,20.649Z" transform="translate(0.437 -0.076)" fill="#f2d847"/>
    <ellipse id="Oval" cx="1.37" cy="1.37" rx="1.37" ry="1.37" transform="translate(8.856 22.786)" fill="#f2d847"/>
    <path id="Shape-3" data-name="Shape" d="M28,23.271a15.845,15.845,0,0,0,3.906,10.739,19.869,19.869,0,0,0,2.659,2.312c1.691,1.307,3.294,2.557,3.719,4.3a3.468,3.468,0,0,0-2.192,3.218v2.312A3.468,3.468,0,0,0,38.4,49.4v.213a4.624,4.624,0,1,0,9.248,0V49.4a3.468,3.468,0,0,0,2.312-3.255V43.837a3.468,3.468,0,0,0-2.2-3.218c.424-1.734,2.028-2.988,3.719-4.3a19.942,19.942,0,0,0,2.659-2.312,15.853,15.853,0,0,0,3.911-10.739A15.334,15.334,0,0,0,43.029,8,15.334,15.334,0,0,0,28,23.271Zm11.56,2.069H38.4a1.156,1.156,0,1,1,1.156-1.156Zm4.624,15.028H41.873V27.652h2.312Zm-1.156,11.56a2.312,2.312,0,0,1-2.312-2.312h4.624A2.312,2.312,0,0,1,43.029,51.929Zm4.624-5.78A1.156,1.156,0,0,1,46.5,47.3H39.561A1.156,1.156,0,0,1,38.4,46.149V43.837a1.156,1.156,0,0,1,1.156-1.156H46.5a1.156,1.156,0,0,1,1.156,1.156Zm8.092-22.842a13.517,13.517,0,0,1-3.31,9.155,18.067,18.067,0,0,1-2.355,2.031A16.184,16.184,0,0,0,46.5,37.913V27.652h1.156a3.468,3.468,0,1,0-3.468-3.468V25.34H41.873V24.184A3.468,3.468,0,1,0,38.4,27.652h1.156V37.913a16.163,16.163,0,0,0-3.578-3.42,18.1,18.1,0,0,1-2.356-2.032,13.51,13.51,0,0,1-3.314-9.155c.116-7.045,5.933-12.995,12.716-12.995S55.635,16.262,55.745,23.307ZM46.5,25.34V24.184a1.156,1.156,0,1,1,1.156,1.156Z" transform="translate(3.214 0.096)" fill="#f2d847"/>
    <path id="Shape-4" data-name="Shape" d="M57.156,22.312h3.468a1.156,1.156,0,1,0,0-2.312H57.156a1.156,1.156,0,0,0,0,2.312Z" transform="translate(7.583 1.968)" fill="#f2d847"/>
    <path id="Shape-5" data-name="Shape" d="M52.469,11.332a1.156,1.156,0,0,0,.818-.339L55.74,8.54A1.156,1.156,0,1,0,54.1,6.906L51.652,9.358a1.156,1.156,0,0,0,.817,1.974Z" transform="translate(6.852 -0.13)" fill="#f2d847"/>
    <path id="Shape-6" data-name="Shape" d="M41.156,6.78a1.156,1.156,0,0,0,1.156-1.156V2.156a1.156,1.156,0,1,0-2.312,0V5.624A1.156,1.156,0,0,0,41.156,6.78Z" transform="translate(5.087 -0.996)" fill="#f2d847"/>
    <path id="Shape-7" data-name="Shape" d="M30.993,10.993a1.156,1.156,0,0,0,0-1.636L28.54,6.906A1.156,1.156,0,1,0,26.906,8.54l2.452,2.453a1.156,1.156,0,0,0,1.636,0Z" transform="translate(2.989 -0.13)" fill="#f2d847"/>
    <path id="Shape-8" data-name="Shape" d="M22.156,20a1.156,1.156,0,0,0,0,2.312h3.468a1.156,1.156,0,0,0,0-2.312Z" transform="translate(2.123 1.968)" fill="#f2d847"/>
  </g>
</svg>
