<svg id="Page-1" xmlns="http://www.w3.org/2000/svg" width="69.327" height="69.366" viewBox="0 0 69.327 69.366">
  <g id="_034---Empathy" data-name="034---Empathy">
    <path id="Shape" d="M6.508,58.315a6.759,6.759,0,0,0,.386,3.105,4.312,4.312,0,0,0,4.088,3.155,4.712,4.712,0,0,0,.946-.1,93.95,93.95,0,0,0,9.711-2.913c2.6,1.529,4.239,6.174,4.667,7.916a1.156,1.156,0,0,0,1.124.882l28.936-.08a1.156,1.156,0,0,0,1.1-1.494,8.869,8.869,0,0,0-1.17-2.214,10.727,10.727,0,0,1-.736-1.224,22.705,22.705,0,0,1-1.306-3.312A38.274,38.274,0,0,1,52.9,55.2a19.19,19.19,0,0,1,.126-5.465,1.156,1.156,0,1,0-2.281-.377,21.49,21.49,0,0,0-.14,6.119,40.461,40.461,0,0,0,1.444,7.24,24.917,24.917,0,0,0,1.43,3.632,12.813,12.813,0,0,0,.887,1.49l.086.128L28.3,68.05a18.442,18.442,0,0,0-4.067-7.385c.3-.1.586-.2.851-.3.865-.3,1.518-.534,1.85-.637,4.945-1.556,7.418-3.808,7.35-6.695A1.134,1.134,0,0,0,33.1,51.908a1.156,1.156,0,0,0-1.128,1.183c.028,1.191-.944,2.928-5.735,4.435-.341.108-1.018.347-1.916.661-.825.289-1.842.646-2.955,1.027a95.758,95.758,0,0,1-9.915,3,2.04,2.04,0,0,1-2.374-1.55,4.49,4.49,0,0,1-.28-2.04c.032-.239.087-.479.139-.718a5.129,5.129,0,0,0,.109-2.47A3.821,3.821,0,0,0,6.92,53.068l-.246-.142a4.31,4.31,0,0,1,.443-.718,1.156,1.156,0,0,0-.223-1.64c-.276-.206-.935-.7-1.409-1.08.058-.109.126-.231.186-.335.177-.313.379-.675.578-1.089a4.265,4.265,0,0,0,.31-2.584c-.268-1.417-1.618-2.109-2.606-2.613A6.7,6.7,0,0,1,3,42.312a5.731,5.731,0,0,1-.686-.555c0-.173.183-.594,1.07-1.683a46.612,46.612,0,0,0,5.269-8.586A3.352,3.352,0,0,0,9.1,29.921a4.03,4.03,0,0,0-1.689-2.89c-.462-.428-.907-.832-.956-1.188a2,2,0,0,1,.185-.809c.188-.5.409-1,.63-1.489a16.679,16.679,0,0,0,1.119-3.032l.094-.407a28.587,28.587,0,0,1,.962-3.5,19.666,19.666,0,0,1,4.137-6.771C15.82,7.472,19.2,5.86,23.917,4.908A75.073,75.073,0,0,1,34.735,3.353,23.814,23.814,0,0,1,47.993,6.434,1.156,1.156,0,0,0,49.112,4.41a26.4,26.4,0,0,0-14.5-3.37,77.168,77.168,0,0,0-11.154,1.6c-5.2,1.05-8.982,2.883-11.56,5.606A21.965,21.965,0,0,0,7.276,15.8a30.889,30.889,0,0,0-1.04,3.777l-.094.4A14.731,14.731,0,0,1,5.163,22.6c-.239.535-.477,1.07-.682,1.618a3.9,3.9,0,0,0-.312,1.943,4.417,4.417,0,0,0,1.684,2.574c.565.519.936.884.94,1.215a1.932,1.932,0,0,1-.2.5A44.707,44.707,0,0,1,1.538,38.68c-.824,1.012-1.69,2.2-1.514,3.392a3.573,3.573,0,0,0,1.67,2.156,8.528,8.528,0,0,0,1.2.694c.5.253,1.331.679,1.387.984a1.985,1.985,0,0,1-.127,1.162c-.171.361-.347.674-.5.944-.451.8-1.131,2.006-.064,2.906.249.221.675.556,1.066.854a2.916,2.916,0,0,0-.372,1.675,1.657,1.657,0,0,0,.679,1.123,8.456,8.456,0,0,0,.809.5c.677.388.942.569,1.033.925a3.237,3.237,0,0,1-.125,1.4C6.615,57.709,6.549,58.012,6.508,58.315Z" transform="translate(-0.001 -0.996)" fill="#f0615b"/>
    <path id="Shape-2" data-name="Shape" d="M11.476,20.649l.116-.5a25.651,25.651,0,0,1,.773-2.857,15.26,15.26,0,0,1,3.172-5.2,12.1,12.1,0,0,1,5.329-2.926,1.156,1.156,0,0,0-.675-2.211,14.324,14.324,0,0,0-6.335,3.55A17.563,17.563,0,0,0,10.2,16.495a27.5,27.5,0,0,0-.855,3.131l-.116.5a1.156,1.156,0,1,0,2.251.525Z" transform="translate(1.432 -0.075)" fill="#f0615b"/>
    <ellipse id="Oval" cx="0.913" cy="1.37" rx="0.913" ry="1.37" transform="translate(9.411 22.786)" fill="#f0615b"/>
    <path id="Shape-3" data-name="Shape" d="M56.117,35.6l6.678-6.74.21-.22.009-.012c.024-.025.05-.051.074-.077a12.832,12.832,0,0,0-.3-17.789,12.574,12.574,0,0,0-17.657-.308q-.16.15-.316.309c-.008.008-.01.02-.019.028L32.709,22.976a3.584,3.584,0,0,0,0,5.038,3.507,3.507,0,0,0,2.487,1.04L46.774,40.747a1.272,1.272,0,0,1,0,1.781,1.216,1.216,0,0,1-1.734,0l-14.076-14.2a1.156,1.156,0,1,0-1.643,1.628L43.4,44.16a1.272,1.272,0,0,1,0,1.783,1.243,1.243,0,0,1-1.734,0L23.358,27.465c-.083-.084-.165-.17-.245-.257a10.52,10.52,0,0,1,.25-14.591,10.317,10.317,0,0,1,14.687,0,1.156,1.156,0,1,0,1.643-1.627,12.63,12.63,0,0,0-17.973,0,12.832,12.832,0,0,0-.3,17.79c.008.009.01.021.02.03l.273.275.007.007,18.3,18.469a3.53,3.53,0,0,0,6.04-2.376,3.5,3.5,0,0,0,2.361-1.033,3.563,3.563,0,0,0,1.018-2.376,3.5,3.5,0,0,0,2.359-1.04,3.561,3.561,0,0,0,1.018-2.374,3.51,3.51,0,0,0,2.361-1.04A3.547,3.547,0,0,0,56.117,35.6ZM34.35,24.6,46.72,12.13a10.27,10.27,0,0,1,14.424.257,10.52,10.52,0,0,1,.25,14.591l-.065.067L55.6,32.825a3.5,3.5,0,0,0-.421-.52L44.33,21.354l1.022-1.031a8.96,8.96,0,0,0,5.387,2.455,7.96,7.96,0,0,0,6.137-2.721,1.158,1.158,0,1,0-1.65-1.627,5.841,5.841,0,0,1-4.365,2.039,7.351,7.351,0,0,1-4.614-2.522,1.156,1.156,0,0,0-1.72-.084L41.89,20.528l-3.367,3.4L36.1,26.37a1.216,1.216,0,0,1-1.735,0A1.272,1.272,0,0,1,34.35,24.6ZM50.155,39.123a1.238,1.238,0,0,1-1.734,0L37.555,28.159c.057-.05.116-.089.173-.143l1.6-1.61L50.14,37.327l.01.015A1.272,1.272,0,0,1,50.155,39.123Zm1.65-3.406L40.95,24.762,42.7,23,53.533,33.93a1.272,1.272,0,0,1,0,1.781A1.24,1.24,0,0,1,51.805,35.717Z" transform="translate(2.804 -0.063)" fill="#f0615b"/>
  </g>
</svg>
