<svg id="Page-1" xmlns="http://www.w3.org/2000/svg" width="69.363" height="69.362" viewBox="0 0 69.363 69.362">
  <g id="_026---Vision" data-name="026---Vision" transform="translate(0 0)">
    <path id="Shape" d="M2.7,43.21a8.354,8.354,0,0,0,1.2.694c.5.255,1.338.683,1.4.983a2.009,2.009,0,0,1-.136,1.171c-.172.37-.353.688-.509.962-.423.748-1.132,2-.064,2.874.25.231.681.565,1.074.867a2.912,2.912,0,0,0-.376,1.668,1.669,1.669,0,0,0,.686,1.138c.257.18.531.338.8.491.684.388.951.57,1.04.933A3.185,3.185,0,0,1,7.7,56.377c-.068.309-.134.618-.173.925a6.88,6.88,0,0,0,.38,3.114A4.33,4.33,0,0,0,12,63.566a4.647,4.647,0,0,0,.948-.1,87.717,87.717,0,0,0,9.746-2.917c2.6,1.528,4.25,6.175,4.678,7.92a1.156,1.156,0,0,0,1.122.877l29.016-.081a1.156,1.156,0,0,0,1.1-1.5,8.923,8.923,0,0,0-1.171-2.2,10.8,10.8,0,0,1-.748-1.251,21.774,21.774,0,0,1-1.305-3.29,38.772,38.772,0,0,1-1.368-6.839,19.554,19.554,0,0,1,1.519-10.15,1.157,1.157,0,0,0-2.12-.925A21.893,21.893,0,0,0,51.72,54.464a41.213,41.213,0,0,0,1.458,7.253,24.226,24.226,0,0,0,1.435,3.618,12.823,12.823,0,0,0,.9,1.511l.077.116-26.221.073A18.417,18.417,0,0,0,25.3,59.652l1.04-.364c.775-.271,1.358-.474,1.658-.57,4.952-1.566,7.429-3.822,7.362-6.7a1.156,1.156,0,1,0-2.312.054c.028,1.19-.947,2.925-5.752,4.445-.313.1-.917.311-1.718.591-.859.3-1.951.682-3.156,1.091h-.008A89.955,89.955,0,0,1,12.467,61.2a2.046,2.046,0,0,1-2.372-1.541A4.6,4.6,0,0,1,9.823,57.6c.03-.243.086-.483.139-.725a5.06,5.06,0,0,0,.1-2.46,3.835,3.835,0,0,0-2.141-2.365l-.239-.136a4.334,4.334,0,0,1,.445-.714,1.156,1.156,0,0,0-.221-1.646c-.277-.2-.932-.694-1.41-1.08.055-.1.116-.212.173-.312.181-.318.388-.688.591-1.116a4.334,4.334,0,0,0,.309-2.587c-.277-1.41-1.629-2.1-2.614-2.606A6.7,6.7,0,0,1,4,41.3a5.012,5.012,0,0,1-.689-.561c0-.176.188-.6,1.069-1.673a46.669,46.669,0,0,0,5.295-8.6,3.439,3.439,0,0,0,.445-1.562,4.046,4.046,0,0,0-1.689-2.89c-.462-.429-.907-.833-.959-1.21a2.081,2.081,0,0,1,.18-.791c.188-.5.406-.981.624-1.468A16.888,16.888,0,0,0,9.408,19.5L9.524,19a28.9,28.9,0,0,1,.942-3.413,19.825,19.825,0,0,1,4.148-6.775c2.211-2.34,5.692-4,10.361-4.924a80.537,80.537,0,0,1,9.641-1.48A1.16,1.16,0,0,0,34.434.1a82.7,82.7,0,0,0-9.914,1.52c-5.213,1.04-9,2.868-11.587,5.6A22.149,22.149,0,0,0,8.3,14.785a31.356,31.356,0,0,0-1.024,3.7l-.116.488A15.085,15.085,0,0,1,6.168,21.6c-.231.527-.472,1.054-.679,1.6a3.86,3.86,0,0,0-.305,1.933A4.418,4.418,0,0,0,6.868,27.72c.565.518.936.883.941,1.2a1.9,1.9,0,0,1-.2.5,44.72,44.72,0,0,1-5.058,8.221c-.838,1.02-1.717,2.209-1.532,3.4A3.533,3.533,0,0,0,2.7,43.21Z" transform="translate(-0.998 0.015)" fill="#f0b75b"/>
    <path id="Shape-2" data-name="Shape" d="M12.475,19.656l.116-.5a25.72,25.72,0,0,1,.773-2.855,15.271,15.271,0,0,1,3.172-5.2A12.108,12.108,0,0,1,21.864,8.17a1.156,1.156,0,1,0-.673-2.211,14.316,14.316,0,0,0-6.336,3.55A17.559,17.559,0,0,0,11.2,15.495a27.442,27.442,0,0,0-.855,3.128l-.116.5a1.156,1.156,0,1,0,2.251.528Z" transform="translate(0.436 0.921)" fill="#f0b75b"/>
    <ellipse id="Oval" cx="0.913" cy="1.37" rx="0.913" ry="1.37" transform="translate(9.549 22.786)" fill="#f0b75b"/>
    <path id="Shape-3" data-name="Shape" d="M67.143,20.432a1.365,1.365,0,0,0-.065-.121A1.272,1.272,0,0,0,67,20.165C66.594,19.64,57.134,7.6,45,7.028h-.009C44.752,7.012,44.5,7,44.259,7H44.12c-.283,0-.578.012-.861.024h-.012c-12.138.563-21.6,12.613-22.006,13.138a1.272,1.272,0,0,0-.079.146,1.366,1.366,0,0,0-.065.121,1.037,1.037,0,0,0,0,.879,1.366,1.366,0,0,0,.065.121,1.272,1.272,0,0,0,.079.146c.406.525,9.864,12.569,22,13.137h.01c.24.013.494.024.733.024h.14c.283,0,.578-.012.832-.023C57.108,34.176,66.594,22.1,67,21.574a1.272,1.272,0,0,0,.079-.146,1.365,1.365,0,0,0,.065-.121,1.023,1.023,0,0,0,0-.875Zm-23.022,12c-5.329,0-10.242-2.652-13.988-5.488A34.764,34.764,0,0,0,44.12,30.121a34.76,34.76,0,0,0,14.005-3.185C54.384,29.774,49.465,32.433,44.12,32.433Zm-8.092-10.4a1.156,1.156,0,0,0,1.156-1.156,6.943,6.943,0,0,1,6.936-6.936,30.806,30.806,0,0,1,10.4,1.943,11.381,11.381,0,0,1,0,9.986,35.029,35.029,0,0,1-3.415,1.04,9.2,9.2,0,0,0,2.259-6.033,1.156,1.156,0,1,0-2.312,0,6.943,6.943,0,0,1-6.936,6.936,30.806,30.806,0,0,1-10.4-1.943,11.381,11.381,0,0,1,0-9.986,35.027,35.027,0,0,1,3.415-1.04,9.2,9.2,0,0,0-2.259,6.033A1.156,1.156,0,0,0,36.028,22.028Zm28.118-1.156a42.531,42.531,0,0,1-6.7,3.815,13.341,13.341,0,0,0,0-7.623A42.624,42.624,0,0,1,64.146,20.872ZM30.8,24.687a42.53,42.53,0,0,1-6.7-3.815,42.53,42.53,0,0,1,6.7-3.815,13.341,13.341,0,0,0,0,7.623ZM44.12,11.624a34.76,34.76,0,0,0-14.005,3.185c3.742-2.838,8.661-5.5,14.005-5.5S54.363,11.964,58.108,14.8A34.764,34.764,0,0,0,44.12,11.624Z" transform="translate(2.122 1.092)" fill="#f0b75b"/>
    <path id="Shape-4" data-name="Shape" d="M41.468,22.936A3.468,3.468,0,1,0,38,19.468,3.468,3.468,0,0,0,41.468,22.936Zm0-4.624a1.156,1.156,0,1,1-1.156,1.156A1.156,1.156,0,0,1,41.468,18.312Z" transform="translate(4.775 2.496)" fill="#f0b75b"/>
    <path id="Shape-5" data-name="Shape" d="M42.312,37.624V34.156a1.156,1.156,0,1,0-2.312,0v3.468a1.156,1.156,0,1,0,2.312,0Z" transform="translate(5.087 5.149)" fill="#f0b75b"/>
    <path id="Shape-6" data-name="Shape" d="M50.391,36.307a1.156,1.156,0,0,0,1-1.734l-1.734-3.006a1.156,1.156,0,1,0-2,1.156l1.734,3.006A1.156,1.156,0,0,0,50.391,36.307Z" transform="translate(6.256 4.834)" fill="#f0b75b"/>
    <path id="Shape-7" data-name="Shape" d="M48.656,7.729a1.156,1.156,0,0,0,1-.578l1.734-3.006a1.156,1.156,0,1,0-2-1.156L47.656,5.995a1.156,1.156,0,0,0,1,1.734Z" transform="translate(6.257 0.375)" fill="#f0b75b"/>
    <path id="Shape-8" data-name="Shape" d="M41.156,5.78a1.156,1.156,0,0,0,1.156-1.156V1.156a1.156,1.156,0,1,0-2.312,0V4.624A1.156,1.156,0,0,0,41.156,5.78Z" transform="translate(5.087 0)" fill="#f0b75b"/>
    <path id="Shape-9" data-name="Shape" d="M33.891,7.729a1.156,1.156,0,0,0,1-1.734L33.157,2.989a1.156,1.156,0,1,0-2,1.156l1.734,3.006A1.156,1.156,0,0,0,33.891,7.729Z" transform="translate(3.682 0.375)" fill="#f0b75b"/>
    <path id="Shape-10" data-name="Shape" d="M32.156,36.307a1.156,1.156,0,0,0,1-.578l1.734-3.006a1.156,1.156,0,1,0-2-1.156l-1.734,3.006a1.156,1.156,0,0,0,1,1.734Z" transform="translate(3.683 4.834)" fill="#f0b75b"/>
  </g>
</svg>
